<?xml version="1.0" encoding="UTF-8"?>
<svg version="1.1" xmlns="http://www.w3.org/2000/svg" width="235" height="222">
<path d="M0 0 C77.55 0 155.1 0 235 0 C235 73.26 235 146.52 235 222 C157.45 222 79.9 222 0 222 C0 148.74 0 75.48 0 0 Z " fill="#015F7E" transform="translate(0,0)"/>
<path d="M0 0 C77.55 0 155.1 0 235 0 C235 73.26 235 146.52 235 222 C157.45 222 79.9 222 0 222 C0 148.74 0 75.48 0 0 Z M101 11 C99.99839844 11.70382813 98.99679688 12.40765625 97.96484375 13.1328125 C95.63942579 14.7746722 93.32859004 16.435294 91.0234375 18.10546875 C86.47048958 21.39599798 81.85912624 24.60139002 77.25 27.8125 C70.04907857 32.83722159 62.90703182 37.93506701 55.80322266 43.09594727 C50.12253585 47.21353824 44.38239808 51.24058573 38.625 55.25 C35.41317627 57.49505712 32.20461479 59.74466474 29 62 C28.3620752 62.44891602 27.72415039 62.89783203 27.06689453 63.36035156 C15.35962032 71.13258843 15.35962032 71.13258843 9 83 C8.03004279 90.24696599 9.83424241 95.08508452 14 101 C17.54364175 105.40560867 21.38536705 108.09229571 27 109 C29.6222302 108.92351114 32.18044027 108.79051885 34.7890625 108.5703125 C35.48362549 108.5175415 36.17818848 108.46477051 36.89379883 108.41040039 C38.59637646 108.28010855 40.29827114 108.14094482 42 108 C42.01030746 109.31322739 42.02061493 110.62645477 42.03123474 111.97947693 C42.12878493 124.32605986 42.23150105 136.67259031 42.33933926 149.01908779 C42.39461859 155.36728067 42.44804646 161.7154781 42.49731445 168.0637207 C42.54488427 174.1845268 42.59722412 180.30527486 42.65294075 186.42601204 C42.67339787 188.76689277 42.69210525 191.10778943 42.70907402 193.44869804 C42.73304397 196.71512519 42.76310829 199.98144148 42.79467773 203.24780273 C42.80331093 204.71515114 42.80331093 204.71515114 42.81211853 206.21214294 C42.82190735 207.09700378 42.83169617 207.98186462 42.84178162 208.89353943 C42.84823417 209.66692374 42.85468672 210.44030806 42.8613348 211.23712826 C42.81008479 213.02657831 42.81008479 213.02657831 44 214 C45.88330547 214.09873281 47.77035838 214.12632187 49.65625 214.12698364 C50.884646 214.12980347 52.11304199 214.13262329 53.37866211 214.13552856 C54.75244155 214.13358397 56.12622085 214.13153578 57.5 214.12939453 C58.93693079 214.13074853 60.37386123 214.13252846 61.81079102 214.13470459 C65.72390589 214.13927906 69.63699451 214.13748931 73.55010986 214.1343255 C77.6362719 214.13180197 81.72243163 214.13413942 85.80859375 214.13571167 C92.67187912 214.13753339 99.53515375 214.13512701 106.3984375 214.13037109 C114.34472006 214.12492847 122.29097697 214.12669112 130.23725891 214.1321975 C137.04743164 214.13672857 143.85759663 214.13737921 150.66777039 214.13475883 C154.74059469 214.13319602 158.81340693 214.13300239 162.88623047 214.13629532 C166.71435757 214.13917395 170.54245145 214.13719849 174.37057495 214.13140106 C175.77953028 214.13007342 177.18848838 214.13046765 178.59744263 214.13266373 C180.51287743 214.13537504 182.42831832 214.13138058 184.34375 214.12698364 C185.41818359 214.12660662 186.49261719 214.12622959 187.59960938 214.12584114 C189.95210179 214.27093742 189.95210179 214.27093742 191 213 C191.0953919 211.62123975 191.12188622 210.23763084 191.12025452 208.85557556 C191.12162918 207.96230057 191.12300385 207.06902557 191.12442017 206.14868164 C191.12082489 205.16109863 191.11722961 204.17351562 191.11352539 203.15600586 C191.11374443 201.6049691 191.11374443 201.6049691 191.1139679 200.02259827 C191.11326827 196.58665914 191.10547358 193.15077347 191.09765625 189.71484375 C191.09579225 187.33972707 191.09436826 184.96461 191.09336853 182.5894928 C191.08954197 176.32423856 191.0797105 170.05900733 191.06866455 163.79376221 C191.0584534 157.4061311 191.05387155 151.01849629 191.04882812 144.63085938 C191.03808836 132.08722974 191.02120127 119.54361609 191 107 C192.97563171 107.512441 194.95126343 108.024882 196.92689514 108.537323 C202.95722606 109.8831765 209.42214339 109.58580593 214.73046875 106.3203125 C219.59920343 102.1108029 223.51938809 98.07870236 224.5390625 91.546875 C224.69961557 84.45334849 224.75315467 78.72883316 219.67578125 73.28515625 C213.91720054 68.36724426 207.75867823 64.03338917 201.52636719 59.74121094 C198.99994609 57.99996285 196.48661641 56.24130697 193.9765625 54.4765625 C190.61467419 52.11401351 187.24901281 49.75706181 183.87890625 47.40625 C174.32542898 40.74007094 164.79636256 34.04215103 155.37182617 27.19458008 C148.16222911 21.95757515 140.90374508 16.80121908 133.5625 11.75 C132.75119629 11.18869385 131.93989258 10.6273877 131.10400391 10.04907227 C130.34909668 9.53272217 129.59418945 9.01637207 128.81640625 8.484375 C128.15068604 8.02772461 127.48496582 7.57107422 126.79907227 7.10058594 C117.74413879 1.56121288 108.73270369 5.41090502 101 11 Z " fill="#005F7F" transform="translate(0,0)"/>
<path d="M0 0 C0.87398438 -0.01933594 1.74796875 -0.03867188 2.6484375 -0.05859375 C9.53757958 1.0895966 15.11717922 5.28162275 20.5625 9.4375 C21.87527598 10.4193422 23.18911927 11.39975862 24.50390625 12.37890625 C25.17953613 12.88309082 25.85516602 13.38727539 26.55126953 13.90673828 C29.99635879 16.44979334 33.49655003 18.91326883 37 21.375 C37.70825928 21.87322266 38.41651855 22.37144531 39.14624023 22.88476562 C40.5864696 23.89737344 42.02698127 24.90957985 43.46777344 25.92138672 C47.02429407 28.42093325 50.57434099 30.92963758 54.125 33.4375 C55.54163508 34.43754474 56.95830177 35.43754472 58.375 36.4375 C61.20833333 38.4375 64.04166667 40.4375 66.875 42.4375 C67.9280835 43.1807251 67.9280835 43.1807251 69.00244141 43.93896484 C70.41129529 44.93362152 71.81982696 45.92873475 73.22802734 46.92431641 C76.88664596 49.51001142 80.55144275 52.08623887 84.2265625 54.6484375 C84.98388672 55.17824219 85.74121094 55.70804688 86.52148438 56.25390625 C87.95559195 57.25690173 89.39164091 58.25713004 90.83007812 59.25390625 C104.02377759 68.49855926 104.02377759 68.49855926 107.625 75.4375 C108.60131644 81.25736035 108.91040847 87.53212469 106.484375 93.015625 C105.00681265 95.05310571 103.45668705 96.71630915 101.625 98.4375 C100.779375 99.406875 99.93375 100.37625 99.0625 101.375 C94.52202287 104.92112462 88.13414778 104.68333154 82.625 104.4375 C79.93416149 103.8532283 77.28998874 103.13458958 74.625 102.4375 C74.62638269 103.25556075 74.62638269 103.25556075 74.62779331 104.09014797 C74.64984999 117.34267465 74.6663485 130.59519813 74.67681217 143.84773922 C74.68204166 150.25649128 74.6891405 156.66523015 74.70043945 163.07397461 C74.71126599 169.25309441 74.71727634 175.43220148 74.71987724 181.61133003 C74.72173192 183.9745561 74.72535332 186.33778144 74.73073006 188.70100212 C74.73793738 191.99851896 74.73899107 195.29598247 74.73852539 198.59350586 C74.74212067 199.58108887 74.74571594 200.56867188 74.74942017 201.58618164 C74.7480455 202.47945663 74.74667084 203.37273163 74.74525452 204.29307556 C74.74663721 205.46421355 74.74663721 205.46421355 74.74804783 206.65901089 C74.625 208.4375 74.625 208.4375 73.625 209.4375 C71.74169453 209.53623281 69.85464162 209.56382187 67.96875 209.56448364 C66.740354 209.56730347 65.51195801 209.57012329 64.24633789 209.57302856 C62.87255845 209.57108397 61.49877915 209.56903578 60.125 209.56689453 C58.68806921 209.56824853 57.25113877 209.57002846 55.81420898 209.57220459 C51.90109411 209.57677906 47.98800549 209.57498931 44.07489014 209.5718255 C39.9887281 209.56930197 35.90256837 209.57163942 31.81640625 209.57321167 C24.95312088 209.57503339 18.08984625 209.57262701 11.2265625 209.56787109 C3.28027994 209.56242847 -4.66597697 209.56419112 -12.61225891 209.5696975 C-19.42243164 209.57422857 -26.23259663 209.57487921 -33.04277039 209.57225883 C-37.11559469 209.57069602 -41.18840693 209.57050239 -45.26123047 209.57379532 C-49.08935757 209.57667395 -52.91745145 209.57469849 -56.74557495 209.56890106 C-58.15453028 209.56757342 -59.56348838 209.56796765 -60.97244263 209.57016373 C-62.88787743 209.57287504 -64.80331832 209.56888058 -66.71875 209.56448364 C-67.79318359 209.56410662 -68.86761719 209.56372959 -69.97460938 209.56334114 C-72.375 209.4375 -72.375 209.4375 -73.375 208.4375 C-73.48241771 207.07188234 -73.52178988 205.70082757 -73.53321838 204.33103943 C-73.5430072 203.44617859 -73.55279602 202.56131775 -73.56288147 201.64964294 C-73.57151466 200.18229454 -73.57151466 200.18229454 -73.58032227 198.68530273 C-73.59022186 197.6610318 -73.60012146 196.63676086 -73.61032104 195.58145142 C-73.64204171 192.1780228 -73.66673507 188.77458019 -73.69140625 185.37109375 C-73.71196666 183.01839321 -73.73296288 180.66569644 -73.75437927 178.31300354 C-73.80969424 172.10697474 -73.85906181 165.90091208 -73.90722656 159.69482422 C-73.95737295 153.36748221 -74.01309475 147.04018963 -74.06835938 140.71289062 C-74.17605615 128.2878026 -74.27747537 115.86267174 -74.375 103.4375 C-75.90350586 103.56862183 -75.90350586 103.56862183 -77.46289062 103.70239258 C-78.81897517 103.80855664 -80.17509707 103.9142443 -81.53125 104.01953125 C-82.2005957 104.07822388 -82.86994141 104.1369165 -83.55957031 104.1973877 C-89.61203445 104.6505826 -94.41773494 104.05908243 -99.375 100.4375 C-104.79792775 94.3479004 -107.72747062 88.94448571 -107.58203125 80.7734375 C-106.92542044 73.36488532 -102.58004109 69.1561547 -97.375 64.4375 C-94.82813904 62.42133103 -92.18442608 60.57752678 -89.5 58.75 C-87.99078097 57.70327558 -86.48166938 56.65639623 -84.97265625 55.609375 C-83.82627686 54.81950195 -83.82627686 54.81950195 -82.65673828 54.01367188 C-79.06639771 51.5335479 -75.50163505 49.01757351 -71.9375 46.5 C-71.24035889 46.00870605 -70.54321777 45.51741211 -69.82495117 45.01123047 C-64.62430008 41.33983193 -59.4645549 37.61417214 -54.3125 33.875 C-48.08516861 29.35689648 -41.79784421 24.94490043 -35.43579102 20.61889648 C-29.35575003 16.46780059 -23.40573086 12.14299339 -17.48828125 7.76367188 C-6.90040456 0.0101179 -6.90040456 0.0101179 0 0 Z M-7 53.625 C-8.16462489 54.55334848 -9.33141074 55.47899053 -10.5 56.40234375 C-11.12519531 56.89718262 -11.75039062 57.39202148 -12.39453125 57.90185547 C-15.86192856 60.59045619 -19.4326522 63.13390748 -23 65.6875 C-30.22914243 70.87713793 -37.41157378 76.12605326 -44.56689453 81.41699219 C-45.29634277 81.95614258 -46.02579102 82.49529297 -46.77734375 83.05078125 C-47.46356812 83.58731827 -48.14979248 84.12385529 -48.85681152 84.676651 C-51.375 86.4375 -51.375 86.4375 -54.19247437 87.67558289 C-57.86925844 89.54458999 -59.87912728 91.11890394 -62.375 94.4375 C-64.47529147 102.12116118 -63.65157355 110.52812986 -63.44921875 118.40625 C-63.43303215 120.50289707 -63.42181846 122.59958859 -63.41564941 124.69628906 C-63.358132 132.44404018 -63.20455566 140.19083777 -63.0625 147.9375 C-62.835625 165.2625 -62.60875 182.5875 -62.375 200.4375 C-20.795 200.4375 20.785 200.4375 63.625 200.4375 C63.975625 183.195 64.32625 165.9525 64.6875 148.1875 C64.84226807 142.76280273 64.99703613 137.33810547 65.15649414 131.74902344 C65.21338309 126.84484831 65.21338309 126.84484831 65.24754333 121.94049072 C65.27348806 119.77207978 65.33295912 117.60390004 65.41978455 115.43707275 C66.29681388 103.23882185 66.29681388 103.23882185 61.95824432 92.29548264 C57.94699941 88.5755473 53.47394861 85.92568221 48.60849285 83.47261906 C46.03177347 82.12791477 43.77071826 80.47233888 41.4765625 78.6953125 C40.77088135 78.17364502 40.0652002 77.65197754 39.33813477 77.11450195 C38.30450806 76.34626099 38.30450806 76.34626099 37.25 75.5625 C35.66801359 74.39186649 34.08598082 73.22129561 32.50390625 72.05078125 C31.71000488 71.46248535 30.91610352 70.87418945 30.09814453 70.26806641 C25.80065396 67.08715976 21.49336269 63.91955886 17.1875 60.75 C15.62614562 59.60047291 14.06493669 58.45074821 12.50390625 57.30078125 C11.8497876 56.81907471 11.19566895 56.33736816 10.52172852 55.84106445 C9.16559756 54.83753802 7.82949018 53.80672391 6.50756836 52.75854492 C4.73544917 51.24603016 4.73544917 51.24603016 2.625 51.4375 C2.625 50.7775 2.625 50.1175 2.625 49.4375 C-2.30456869 49.4375 -3.23607538 50.56620338 -7 53.625 Z " fill="#679AAE" transform="translate(116.375,4.5625)"/>
<path d="M0 0 C3.09438518 1.48617146 5.64194748 3.48361704 8.3125 5.625 C9.88527943 6.82350573 11.45955503 8.02005008 13.03515625 9.21484375 C13.8461377 9.83858887 14.65711914 10.46233398 15.49267578 11.10498047 C19.65981469 14.25447728 23.95626141 17.21425073 28.25 20.1875 C29.94328461 21.36766318 31.63600607 22.54863483 33.328125 23.73046875 C34.52791992 24.56843994 34.52791992 24.56843994 35.75195312 25.42333984 C39.40093646 27.9825421 43.02202844 30.58002339 46.64257812 33.17919922 C50.80113135 36.15837133 54.98817248 39.0950796 59.18383789 42.02172852 C62.6011072 44.40643696 66.01279852 46.79904134 69.42333984 49.19335938 C71.1484498 50.4029305 72.87535658 51.60994282 74.60400391 52.81445312 C77.09696308 54.55436539 79.58062605 56.3068246 82.0625 58.0625 C82.81821289 58.58626221 83.57392578 59.11002441 84.35253906 59.6496582 C89.12916964 63.05281497 92.3887078 65.87561765 93.5625 71.875 C92.75778347 76.34564738 90.2574991 78.93660059 87 82 C83.81971695 83.59014153 81.52959292 83.35652454 78 83 C75.12473454 81.57648356 72.6661907 79.69705316 70.125 77.75 C68.6175078 76.64018979 67.10968604 75.53082712 65.6015625 74.421875 C64.8374707 73.85146484 64.07337891 73.28105469 63.28613281 72.69335938 C59.73624676 70.06392647 56.11764971 67.53491574 52.5 65 C51.07903882 63.99794619 49.65846652 62.99534069 48.23828125 61.9921875 C47.53654785 61.49686523 46.83481445 61.00154297 46.11181641 60.49121094 C44.02587606 59.01827179 41.94058485 57.54441819 39.85546875 56.0703125 C38.46619193 55.08847644 37.07686885 54.10670583 35.6875 53.125 C35.00051025 52.63950684 34.31352051 52.15401367 33.60571289 51.65380859 C29.6665304 48.87294251 25.71978985 46.10327689 21.765625 43.34375 C20.43591675 42.4153833 20.43591675 42.4153833 19.0793457 41.46826172 C17.37042704 40.27591943 15.66068339 39.08475832 13.94995117 37.89501953 C13.16080322 37.34442871 12.37165527 36.79383789 11.55859375 36.2265625 C10.79272949 35.69450195 10.02686523 35.16244141 9.23779297 34.61425781 C7.74231848 33.53548001 6.27682293 32.41392354 4.84423828 31.25292969 C1.8497703 28.82866749 -0.24135691 27.16750528 -4.04296875 26.328125 C-8.1713234 27.26613953 -10.93973374 29.25726836 -14.3125 31.75 C-15.00545166 32.24443604 -15.69840332 32.73887207 -16.41235352 33.24829102 C-17.87757114 34.29482801 -19.33868557 35.34713066 -20.79589844 36.40478516 C-23.62106657 38.44949589 -26.47440627 40.45253561 -29.32885742 42.45605469 C-31.46105236 43.95404691 -33.58861762 45.45839352 -35.71484375 46.96484375 C-39.97295135 49.9816902 -44.23608897 52.99136396 -48.5 56 C-49.90885856 56.99478544 -51.31771272 57.98957711 -52.7265625 58.984375 C-55.63650876 61.03861226 -58.54817378 63.09038486 -61.4609375 65.140625 C-62.1938501 65.6572168 -62.9267627 66.17380859 -63.68188477 66.70605469 C-65.12869303 67.72460255 -66.5770676 68.74092963 -68.02709961 69.75488281 C-71.15228741 71.9478174 -74.24034839 74.15649321 -77.23046875 76.53125 C-84.81860793 82.47616456 -84.81860793 82.47616456 -89.375 82.6875 C-93.00025665 81.99995132 -95.12469208 81.28333276 -98 79 C-100.4194197 75.37087045 -100.71985285 72.22623287 -100 68 C-97.95429511 63.69110664 -95.28046562 61.34509268 -91.5 58.5 C-90.93885498 58.0769458 -90.37770996 57.6538916 -89.79956055 57.21801758 C-84.10950689 52.98045111 -78.23702373 49.00601727 -72.36328125 45.02929688 C-66.83594955 41.281731 -61.39561295 37.43449901 -56 33.5 C-49.84345726 29.0131084 -43.61654349 24.65213205 -37.3125 20.375 C-23.64926961 11.52062948 -23.64926961 11.52062948 -11.15234375 1.1953125 C-7.51528514 -0.82454219 -4.0386113 -0.76475655 0 0 Z " fill="#CCDFE7" transform="translate(121,16)"/>
<path d="M0 0 C3.5480733 -0.32071712 5.42253366 -0.38883354 8.42529297 1.63305664 C10.92768821 4.0924708 13.42085269 6.55476062 15.875 9.0625 C16.75414062 9.91005859 17.63328125 10.75761719 18.5390625 11.63085938 C25.56361938 18.69359319 25.56361938 18.69359319 25.5703125 23.12109375 C25.28800781 24.54615234 25.28800781 24.54615234 25 26 C26.98 25.67 28.96 25.34 31 25 C28 27 28 27 25 27 C25.10456784 30.93623245 26.49578712 32.7630847 29.1953125 35.41015625 C31.16363267 37.26823445 33.15896555 39.09343408 35.16015625 40.91601562 C35.79050781 41.51220703 36.42085938 42.10839844 37.0703125 42.72265625 C37.65570801 43.25640869 38.24110352 43.79016113 38.84423828 44.34008789 C40 46 40 46 39.86694336 48.03344727 C38.88371643 50.26377476 37.94678356 51.22091852 36.05859375 52.7421875 C28.87101431 58.36615665 28.87101431 58.36615665 25.73828125 66.3671875 C25.99158203 68.04167969 25.99158203 68.04167969 26.25 69.75 C26.68244454 73.58578309 26.66491344 75.98708016 24.51757812 79.25830078 C22.45234695 81.74261629 20.29098326 84.03490871 18 86.3125 C17.2565332 87.06047852 16.51306641 87.80845703 15.74707031 88.57910156 C8.35585634 95.47564063 8.35585634 95.47564063 3.125 95.64624023 C-2.15170423 94.04152561 -5.82664516 89.26726116 -9.5 85.375 C-10.4178125 84.45847656 -11.335625 83.54195313 -12.28125 82.59765625 C-18.93068498 75.76021641 -18.93068498 75.76021641 -19.25585938 72.19384766 C-19.17142578 71.46987793 -19.08699219 70.7459082 -19 70 C-19.88768066 70.08660889 -20.77536133 70.17321777 -21.68994141 70.26245117 C-25.88604932 69.92974605 -27.01629214 68.74395576 -29.9609375 65.80078125 C-30.84394531 64.92099609 -31.72695312 64.04121094 -32.63671875 63.13476562 C-33.54035156 62.20341797 -34.44398437 61.27207031 -35.375 60.3125 C-36.76525391 58.94448242 -36.76525391 58.94448242 -38.18359375 57.54882812 C-44.83019741 50.81901956 -44.83019741 50.81901956 -45.51831055 47.5 C-44.39691171 42.09108615 -39.23205893 38.439632 -35.4375 34.6875 C-34.54224609 33.75615234 -33.64699219 32.82480469 -32.72460938 31.86523438 C-31.84482422 30.98544922 -30.96503906 30.10566406 -30.05859375 29.19921875 C-29.25736084 28.39315186 -28.45612793 27.58708496 -27.63061523 26.7565918 C-24.2566949 24.50365845 -21.97447864 24.67237447 -18 25 C-18.33 24.67 -18.66 24.34 -19 24 C-19.2734375 21.63671875 -19.2734375 21.63671875 -19 19 C-17.6015625 17.33203125 -17.6015625 17.33203125 -15.625 15.8125 C-12.07892018 12.93249958 -8.79652478 9.9168715 -5.5625 6.6875 C-4.71816406 5.84574219 -3.87382813 5.00398438 -3.00390625 4.13671875 C-0.96340293 2.1648487 -0.96340293 2.1648487 0 0 Z " fill="#04607C" transform="translate(114,92)"/>
<path d="M0 0 C4.61684513 0.79449774 6.91712176 4.08588767 10.0078125 7.43359375 C11.23505152 8.73865146 12.46664699 10.03962991 13.703125 11.3359375 C14.51160889 12.20786743 14.51160889 12.20786743 15.33642578 13.09741211 C16.94400775 14.73974216 16.94400775 14.73974216 19.8828125 15.49609375 C20.10324219 14.9546875 20.32367188 14.41328125 20.55078125 13.85546875 C22.32448275 10.71378046 24.67914974 8.29233016 27.1953125 5.74609375 C27.66904297 5.23949219 28.14277344 4.73289063 28.63085938 4.2109375 C30.90413717 1.9034517 32.37419871 0.5804989 35.61328125 0.04296875 C37.8828125 0.49609375 37.8828125 0.49609375 39.8828125 2.49609375 C40.06184866 5.86708897 39.34739914 7.89174527 37.29541016 10.56103516 C35.16397685 12.88947004 32.95535062 15.10491568 30.6953125 17.30859375 C29.56125977 18.47165039 29.56125977 18.47165039 28.40429688 19.65820312 C27.66115234 20.39490234 26.91800781 21.13160156 26.15234375 21.890625 C25.47792236 22.55940674 24.80350098 23.22818848 24.10864258 23.91723633 C21.2453374 25.94827665 19.39597533 26.47497084 15.8828125 26.49609375 C13.34985352 24.85302734 13.34985352 24.85302734 10.88671875 22.39453125 C9.55543945 21.07001953 9.55543945 21.07001953 8.19726562 19.71875 C7.28912109 18.77902344 6.38097656 17.83929688 5.4453125 16.87109375 C4.51009766 15.95457031 3.57488281 15.03804687 2.61132812 14.09375 C-2.47774166 8.93373941 -2.47774166 8.93373941 -4.1171875 6.49609375 C-3.87335645 2.84739417 -3.71443935 0.87035756 0 0 Z " fill="#E5B708" transform="translate(99.1171875,160.50390625)"/>
<path d="M0 0 C2.25854492 0.81884766 2.25854492 0.81884766 3.25854492 1.81884766 C3.69892473 4.98958225 3.48253092 6.46420316 1.75854492 9.19384766 C-1.0125324 12.10347885 -3.95478176 14.69122304 -7.03442383 17.26806641 C-8.84540097 18.7256454 -8.84540097 18.7256454 -9.74145508 20.81884766 C-10.40145508 20.81884766 -11.06145508 20.81884766 -11.74145508 20.81884766 C-9.02320475 26.00736757 -5.13610914 29.47197637 -0.8605957 33.35791016 C3.16338577 37.19027347 3.16338577 37.19027347 3.68432617 40.63134766 C3.25854492 42.81884766 3.25854492 42.81884766 2.25854492 43.81884766 C-1.33426548 44.22315774 -3.14527708 44.22808239 -6.16674805 42.15405273 C-6.93132324 41.38988037 -7.69589844 40.62570801 -8.48364258 39.83837891 C-9.3215332 39.00371094 -10.15942383 38.16904297 -11.02270508 37.30908203 C-12.30661133 35.98360352 -12.30661133 35.98360352 -13.61645508 34.63134766 C-14.4955957 33.76703125 -15.37473633 32.90271484 -16.28051758 32.01220703 C-22.57409983 25.63555731 -22.57409983 25.63555731 -23.25048828 22.3347168 C-22.14884068 16.88988295 -16.87633563 13.20538755 -13.05395508 9.44384766 C-12.14194336 8.50412109 -11.22993164 7.56439453 -10.2902832 6.59619141 C-9.40405273 5.71318359 -8.51782227 4.83017578 -7.60473633 3.92041016 C-6.79302979 3.10910645 -5.98132324 2.29780273 -5.14501953 1.46191406 C-2.74145508 -0.18115234 -2.74145508 -0.18115234 0 0 Z " fill="#8DD004" transform="translate(91.741455078125,117.18115234375)"/>
<path d="M0 0 C3.56918586 -0.32842698 5.42140643 -0.39716424 8.42529297 1.66479492 C9.57215576 2.81105347 9.57215576 2.81105347 10.7421875 3.98046875 C11.58007812 4.81513672 12.41796875 5.64980469 13.28125 6.50976562 C14.1371875 7.39341797 14.993125 8.27707031 15.875 9.1875 C16.75414062 10.05181641 17.63328125 10.91613281 18.5390625 11.80664062 C24.87377317 18.22496161 24.87377317 18.22496161 25.43408203 21.6652832 C25.29083496 22.43573975 25.14758789 23.20619629 25 24 C22 26 22 26 20.00585938 25.81103516 C17.69507908 24.87671041 16.58110526 23.85808652 14.90625 22.0234375 C14.35066406 21.435625 13.79507813 20.8478125 13.22265625 20.2421875 C12.07031954 18.99316948 10.92189733 17.74052905 9.77734375 16.484375 C9.22175781 15.89914063 8.66617188 15.31390625 8.09375 14.7109375 C7.59552734 14.16743652 7.09730469 13.62393555 6.58398438 13.06396484 C5.03688762 11.78630904 5.03688762 11.78630904 2.98193359 12.16259766 C-0.91095932 13.80741445 -3.60877244 17.59451979 -6.40234375 20.6953125 C-9.02055732 23.46753863 -10.53036926 24.85584476 -14.2578125 26 C-15.16273437 26 -16.06765625 26 -17 26 C-19 24 -19 24 -19.3359375 21.57421875 C-19 19 -19 19 -17.6015625 17.33203125 C-16.62316406 16.57986328 -16.62316406 16.57986328 -15.625 15.8125 C-12.07892018 12.93249958 -8.79652478 9.9168715 -5.5625 6.6875 C-4.71816406 5.84574219 -3.87382813 5.00398438 -3.00390625 4.13671875 C-0.96340293 2.1648487 -0.96340293 2.1648487 0 0 Z " fill="#D1582E" transform="translate(114,92)"/>
<path d="M0 0 C3.40636426 2.58783287 6.31057046 5.707792 9.3125 8.75 C10.14845703 9.56210938 10.98441406 10.37421875 11.84570312 11.2109375 C12.63525391 12.00242188 13.42480469 12.79390625 14.23828125 13.609375 C15.321698 14.6917041 15.321698 14.6917041 16.42700195 15.79589844 C18 18 18 18 18.48168945 20.48413086 C17.47404283 25.74707992 12.56277758 29.18690635 8.875 32.8125 C8.0190625 33.69615234 7.163125 34.57980469 6.28125 35.49023438 C5.44335938 36.32490234 4.60546875 37.15957031 3.7421875 38.01953125 C2.9776123 38.78370361 2.21303711 39.54787598 1.42529297 40.33520508 C-1.596178 42.40923473 -3.40718959 42.40431009 -7 42 C-8 41 -8 41 -8.50390625 38.87890625 C-7.69521538 34.25871111 -4.31904178 31.99482876 -0.9375 28.9375 C0.39775358 27.72953466 1.7226067 26.50994104 3.03515625 25.27734375 C3.6269165 24.74359131 4.21867676 24.20983887 4.82836914 23.65991211 C6.21178502 22.06558702 6.21178502 22.06558702 5.88500977 20.00219727 C4.84822188 17.65662556 3.69014738 16.42044804 1.8046875 14.6875 C1.17175781 14.08679688 0.53882813 13.48609375 -0.11328125 12.8671875 C-1.45862967 11.61849518 -2.80762172 10.3737175 -4.16015625 9.1328125 C-4.79050781 8.53210938 -5.42085937 7.93140625 -6.0703125 7.3125 C-6.65570801 6.77238281 -7.24110352 6.23226562 -7.84423828 5.67578125 C-9 4 -9 4 -8.87060547 1.85546875 C-8.43965576 0.93701172 -8.43965576 0.93701172 -8 0 C-4.60971457 -1.13009514 -3.3652943 -1.04465336 0 0 Z " fill="#02BAD7" transform="translate(147,119)"/>
<path d="M0 0 C0.66 0.33 1.32 0.66 2 1 C1.18860062 1.61828171 0.37720123 2.23656342 -0.45878601 2.87358093 C-3.57672041 6.02306469 -3.61027273 8.859593 -3.68555164 13.15315723 C-3.67692946 14.10010802 -3.66830729 15.04705881 -3.65942383 16.02270508 C-3.66993869 17.04426288 -3.68045355 18.06582067 -3.69128704 19.11833477 C-3.71964254 22.41905583 -3.7139999 25.71871554 -3.70703125 29.01953125 C-3.719557 31.0597074 -3.73431411 33.09987111 -3.75134277 35.14001465 C-3.79877547 42.69738841 -3.80302156 50.25498333 -3.8125 57.8125 C-3.874375 74.704375 -3.93625 91.59625 -4 109 C36.92 109 77.84 109 120 109 C120 74.35 120 39.7 120 4 C120.33 4 120.66 4 121 4 C121 38.98 121 73.96 121 110 C79.42 110 37.84 110 -5 110 C-5.103125 92.5925 -5.20625 75.185 -5.3125 57.25 C-5.35802002 51.7524707 -5.40354004 46.25494141 -5.45043945 40.59082031 C-5.47302246 33.88037109 -5.47302246 33.88037109 -5.47721863 30.73944092 C-5.48489932 28.54456518 -5.50249064 26.34971061 -5.52787781 24.15496826 C-5.56440529 20.83112917 -5.56953272 17.50857963 -5.56762695 14.18457031 C-5.58561749 13.20591633 -5.60360804 12.22726234 -5.62214375 11.21895218 C-5.57119189 4.59395844 -5.57119189 4.59395844 -2.46452332 1.36346436 C-1.65123062 0.91352112 -0.83793793 0.46357788 0 0 Z " fill="#166884" transform="translate(59,95)"/>
<path d="M0 0 C0.56170898 0.24959473 1.12341797 0.49918945 1.70214844 0.75634766 C0.71214844 0.75634766 -0.27785156 0.75634766 -1.29785156 0.75634766 C-1.67961548 1.63141968 -1.67961548 1.63141968 -2.0690918 2.52416992 C-3.4272888 4.99148469 -4.91430715 6.53986782 -6.95800781 8.47119141 C-7.66892578 9.15761719 -8.37984375 9.84404297 -9.11230469 10.55126953 C-10.61110397 11.97975156 -12.11371936 13.40424029 -13.62011719 14.82470703 C-14.32974609 15.51242188 -15.039375 16.20013672 -15.77050781 16.90869141 C-16.422854 17.52736084 -17.0752002 18.14603027 -17.74731445 18.78344727 C-19.56652791 21.09821092 -19.94010714 22.86471041 -20.29785156 25.75634766 C-20.95785156 25.42634766 -21.61785156 25.09634766 -22.29785156 24.75634766 C-22.70109921 21.41355854 -22.54829216 20.09820252 -20.52539062 17.33691406 C-19.71295898 16.51884277 -18.90052734 15.70077148 -18.06347656 14.85791016 C-17.17917969 13.96716797 -16.29488281 13.07642578 -15.38378906 12.15869141 C-14.44792969 11.24216797 -13.51207031 10.32564453 -12.54785156 9.38134766 C-11.62746094 8.44162109 -10.70707031 7.50189453 -9.75878906 6.53369141 C-8.86933594 5.65068359 -7.97988281 4.76767578 -7.06347656 3.85791016 C-6.2465332 3.04660645 -5.42958984 2.23530273 -4.58789062 1.39941406 C-2.29785156 -0.24365234 -2.29785156 -0.24365234 0 0 Z " fill="#6DB51F" transform="translate(91.2978515625,117.24365234375)"/>
</svg>
